<?xml version="1.0"?><svg width="217.444" height="144.397" xmlns="http://www.w3.org/2000/svg">
 <title>Pizza Cult</title>
 <g>
  <title>Layer 1</title>
  <g transform="rotate(-61.2603 93.473 54.949)" id="Layer_1">
   <g id="svg_1">
    <path id="svg_2" stroke-width="0.036" stroke-miterlimit="10" stroke="#000000" fill-rule="evenodd" d="m106.218445,9.417849c-1.504669,0.386048 -2.762306,1.158145 -3.68309,2.407129c-0.920135,1.248991 -1.593864,2.861308 -1.931358,5.018648c-6.22142,5.064056 -11.363617,9.764778 -15.765343,14.192989c-4.446632,4.382803 -5.996216,8.084341 -10.375488,12.240049c-4.469086,4.110291 -7.590721,4.360081 -15.765354,12.648804c-8.264454,8.334129 -19.04417,20.43792 -33.035355,36.9245l4.963154,7.630165c6.355545,-0.226448 15.608158,-0.840248 28.274326,-1.747955c12.688633,-0.953781 30.609936,-2.384415 47.093922,-3.929253c16.460915,-1.635025 33.057823,-3.497154 50.753914,-5.677193c0.673721,-0.635841 1.39238,-1.476074 2.156586,-2.611526c0.741089,-1.203552 1.504654,-2.475243 2.379272,-4.155685c-0.673721,-4.155724 -1.638794,-8.01622 -2.807236,-12.01297c-1.279449,-4.019447 -2.716751,-8.175163 -4.311874,-11.581482c-1.616959,-3.429031 -3.345596,-5.427402 -5.186523,-8.720184c-1.931351,-3.360901 -2.605087,-6.699089 -6.266327,-11.150017c-3.795349,-4.564468 -9.903229,-10.763969 -15.989304,-15.714497c-6.175255,-4.973215 -12.867676,-9.469556 -20.503922,-13.761522z" clip-rule="evenodd"/>
    <path id="svg_3" stroke-width="0.036" stroke-miterlimit="10" stroke="#000000" fill-rule="evenodd" fill="#EBC275" d="m27.594444,93.054337c4.222057,0.454193 10.195816,0.385422 18.34798,-0.204369c8.174625,-0.703979 21.44717,-2.952133 30.026035,-3.497147c8.444115,-0.545021 12.082275,0.590416 20.52639,0.431465c8.466576,-0.249809 20.63868,-0.81752 29.576866,-1.520866c8.825882,-0.681259 16.25943,-1.590233 22.907562,-2.63485c0.875839,-2.634216 2.178375,-4.201134 4.086655,-4.791557c1.864029,-0.613136 4.245163,-0.181671 7.142212,1.294403l-3.885818,6.33577c-3.4142,0.432083 -9.633759,1.158142 -19.021713,2.180031c-9.454727,0.953758 -23.984291,2.543365 -36.92057,3.724243c-12.95813,1.112724 -28.543816,2.134628 -40.176933,3.065689c-11.655579,0.839592 -21.200123,1.566269 -29.150173,2.180031c-1.145346,-2.179398 -2.290693,-4.359444 -3.458492,-6.562843z" clip-rule="evenodd"/>
    <path id="svg_4" stroke-width="0.036" stroke-miterlimit="10" stroke="#000000" fill-rule="evenodd" fill="#E4E877" d="m27.391689,91.964317c3.189007,-3.065048 6.714878,-6.81263 11.004314,-11.580849c4.26696,-4.83696 9.364883,-11.69503 14.260666,-16.80513c4.783504,-5.154907 10.5327,-10.44606 14.462799,-13.761536c3.817818,-3.338192 6.220818,-3.678833 8.848358,-6.108665c2.537735,-2.520683 4.873344,-5.972416 6.917,-8.515804c2.088562,-2.566093 2.425438,-3.610699 5.614441,-6.562843c3.211456,-2.97485 7.43351,-6.653677 13.182693,-11.127308c1.481583,1.612324 3.683075,3.587992 6.693039,6.108662c3.031181,2.452547 7.814674,5.540949 11.228874,8.742893c3.345589,3.247356 6.062973,7.312229 8.848366,10.26437c2.716766,2.793179 5.905762,3.792374 7.567642,6.767227c1.616974,3.020267 0.718658,8.016205 2.15657,11.127308c1.437912,3.042358 4.940704,4.586555 6.265076,6.994316c1.258896,2.361725 0.561462,4.110298 1.280746,6.994301c0.628799,2.861328 1.526474,5.99514 2.605072,9.832916c-7.500259,1.135452 -15.51767,2.111923 -24.41095,2.8386c-9.006813,0.726692 -20.683601,1.317116 -28.724106,1.521492c-8.039871,0.067497 -11.947525,-0.999191 -18.999245,-0.658546c-7.186501,0.363327 -15.136543,2.157333 -23.333633,2.838585c-8.19709,0.658554 -16.596275,1.021889 -25.467724,1.090012z" clip-rule="evenodd"/>
    <path id="svg_5" stroke-width="0.036" stroke-miterlimit="10" stroke="#000000" fill-rule="evenodd" fill="#A16121" d="m107.29702,10.939335c-1.549576,-0.181676 -2.807205,0.317921 -3.683067,1.317115c-0.897682,0.976469 -1.504662,2.634217 -1.728615,4.791551c1.908279,1.430653 4.109772,3.111107 6.691788,5.041357c2.537727,1.930246 6.087288,4.314669 8.646858,6.540133c2.447891,2.180042 4.490921,4.337379 6.490288,6.562843c1.953201,2.15733 3.391121,4.337376 5.614433,6.540131c2.245789,2.089211 6.10788,3.497166 7.769775,6.335758c1.572021,2.8386 1.078613,8.06163 1.728622,10.491463c0.561447,2.316933 0.741714,2.021088 1.932617,3.497166c1.212067,1.453987 4.153442,3.224644 5.186478,5.223026c0.943237,1.884827 -0.157181,3.701523 0.427963,6.335747c0.560196,2.612137 1.414841,5.745338 2.807236,9.401451c0.089188,-2.384422 1.054871,-3.770294 2.807205,-4.155716c1.77417,-0.386055 4.310638,0.136238 7.791565,1.747932c-0.741089,-5.858856 -2.042999,-11.036469 -3.907654,-15.714478c-1.931335,-4.700096 -5.074814,-8.311428 -7.343018,-12.240047c-2.223343,-3.974037 -3.638153,-7.471195 -6.243271,-11.354401c-2.716782,-3.951332 -4.963791,-7.516609 -9.948166,-12.012955c-5.121002,-4.6553 -16.102837,-11.922115 -20.302437,-15.055932c-4.222061,-3.087768 -5.771652,-4.155076 -4.738602,-3.292144z" clip-rule="evenodd"/>
    <path id="svg_6" stroke-width="0.036" stroke-miterlimit="10" stroke="#000000" fill-rule="evenodd" d="m83.312141,66.190468c-1.122894,-1.65773 -1.482208,-3.38361 -1.077972,-5.450741c0.404236,-2.134621 1.414841,-5.176975 3.458496,-6.76722c2.021187,-1.680454 5.434784,-2.793179 8.421654,-2.63422c2.918892,0.204384 7.187111,1.748581 9.072945,3.928627c1.819069,2.111916 2.469727,4.995937 1.953194,8.742889c-2.447899,-0.817524 -4.469093,-1.180859 -6.062965,-1.090652c-1.640038,0.045414 -3.032425,0.635849 -3.66124,1.521484c-0.65065,0.885651 -0.875854,2.066505 -0.426704,3.724251c-2.53772,-1.385231 -4.401718,-1.998367 -5.839005,-1.748581c-1.437294,0.249794 -2.268242,1.180855 -2.582657,3.065681c-1.077957,-1.088753 -2.155312,-2.17942 -3.255745,-3.291519z" clip-rule="evenodd"/>
    <path id="svg_7" stroke-width="0.036" stroke-miterlimit="10" stroke="#000000" fill-rule="evenodd" fill="#CD3204" d="m83.738838,64.895447c-0.69619,-1.543571 -0.898308,-3.088402 -0.426697,-4.81427c0.426697,-1.771286 1.122887,-4.20113 3.031799,-5.450111c1.841537,-1.294399 5.255119,-2.497963 7.99559,-2.202747c2.716759,0.24979 6.400459,1.930244 8.196457,3.724236c1.706795,1.77129 2.426056,3.99675 2.156563,6.76722c-1.14534,-0.862923 -2.53772,-1.271687 -4.087929,-1.317101c-1.683716,-0.136261 -4.266975,0.227081 -5.412331,1.090649c-1.190262,0.862305 -1.504654,2.247551 -1.280083,4.155716c-1.706795,-1.339821 -3.256378,-1.95359 -4.558929,-1.748589c-1.39238,0.158958 -2.447899,1.135452 -3.436035,2.838615c-0.719269,-0.999825 -1.437302,-2.021721 -2.178406,-3.043617z" clip-rule="evenodd"/>
    <path id="svg_8" stroke-width="0.036" stroke-miterlimit="10" stroke="#000000" fill-rule="evenodd" d="m111.18222,65.099823c0.134117,1.793991 0.762932,4.632599 2.582008,6.767853c1.752327,2.089203 4.537102,4.768845 7.994972,5.6772c3.480949,0.840225 10.195816,1.066681 12.531418,-0.635849c2.15657,-1.862122 2.200272,-6.835968 0.651917,-9.833534c-1.640045,-3.042351 -6.468475,-6.858063 -10.151543,-7.857246c-3.704903,-0.999184 -9.656204,0.908348 -11.879532,1.95359c-2.313766,0.953136 -1.909523,2.088573 -1.72924,3.927986z" clip-rule="evenodd"/>
    <path id="svg_9" stroke-width="0.036" stroke-miterlimit="10" stroke="#000000" fill-rule="evenodd" fill="#FFFFFF" d="m111.923332,65.145233c0.112289,1.771301 0.718651,4.269257 2.426056,6.358467c1.683708,1.930244 4.222054,4.496353 7.52272,5.336571c3.233917,0.772095 9.611931,0.976471 11.768501,-0.613136c2.088577,-1.771919 2.065506,-6.403885 0.628799,-9.242485c-1.595108,-2.88401 -6.086044,-6.403877 -9.566994,-7.403069c-3.525864,-0.931061 -9.006813,0.885647 -11.162125,1.862122c-2.111664,0.840233 -1.841545,2.043804 -1.616959,3.70153z" clip-rule="evenodd"/>
    <path id="svg_10" stroke-width="0.036" stroke-miterlimit="10" stroke="#000000" fill-rule="evenodd" d="m48.771484,66.416931c2.245773,1.521492 4.918243,2.043793 8.197071,1.748566c3.256382,-0.363327 9.050488,-1.431259 11.228893,-3.72422c2.043655,-2.361725 1.639404,-7.516624 1.302551,-10.037292c-0.381783,-2.497974 -1.369926,-4.201134 -3.233932,-5.01865c-5.187744,4.995934 -9.162766,8.924557 -12.104736,11.785862c-2.919495,2.815899 -4.716114,4.564476 -5.389847,5.245735z" clip-rule="evenodd"/>
    <path id="svg_11" stroke-width="0.036" stroke-miterlimit="10" stroke="#000000" fill-rule="evenodd" fill="#DA4100" d="m50.927429,66.416931c1.324997,-1.793991 3.233902,-3.951321 5.816551,-6.562206c2.560196,-2.656937 5.704277,-5.677208 9.522087,-9.151649c1.212723,0.431469 1.998749,1.476067 2.35807,3.474442c0.359337,1.930252 0.69619,5.995132 -0.202118,8.084332c-1.033051,1.97567 -3.211464,3.020287 -5.412323,3.92926c-2.22332,0.840218 -5.547058,1.248344 -7.545815,1.317116c-2.020569,0.022064 -3.502789,-0.341904 -4.536453,-1.091293z" clip-rule="evenodd"/>
    <path id="svg_12" stroke-width="0.036" stroke-miterlimit="10" stroke="#000000" fill-rule="evenodd" d="m97.999512,44.366692c-1.437912,0.022709 0.583908,4.269249 2.60511,6.335751c1.999359,2.089207 5.076073,5.245735 9.050461,5.881577c3.907669,0.522301 12.217026,-1.748577 14.261314,-2.611511c1.862747,-0.931061 -0.090454,-2.043789 -2.583275,-2.63422c-2.560173,-0.658558 -8.152161,0 -12.104721,-1.090019c-3.93074,-1.180859 -9.814667,-5.972416 -11.228889,-5.881577z" clip-rule="evenodd"/>
    <path id="svg_13" stroke-width="0.036" stroke-miterlimit="10" stroke="#000000" fill-rule="evenodd" fill="#61A121" d="m123.713654,52.882481c-1.616951,0.817524 -3.593246,1.498787 -5.83963,1.952961c-2.35746,0.454182 -5.23204,1.363155 -7.769768,0.885647c-2.537727,-0.567089 -5.480316,-2.225471 -7.343071,-3.928619c-1.93261,-1.680454 -3.30191,-3.724247 -4.109756,-6.131378c1.503418,1.862114 3.143456,3.497154 5.186493,4.814262c1.954445,1.339821 3.346825,2.566093 6.693031,3.065693c3.345566,0.408756 7.657471,0.158958 13.182701,-0.658566z" clip-rule="evenodd"/>
    <path id="svg_14" stroke-width="0.036" stroke-miterlimit="10" stroke="#000000" fill-rule="evenodd" fill="#80FF00" d="m99.953339,45.88818c1.862747,1.566906 3.77227,2.770477 5.815308,3.701538c1.976288,0.885635 3.661247,1.294392 6.26635,1.748569c2.583267,0.408756 5.68119,0.703976 9.297516,0.885647c-2.5159,0.40876 -4.850258,0.658546 -6.916985,0.658546c-2.088593,0.045422 -3.525887,0.090843 -5.614449,-0.658546c-2.223335,-0.931061 -5.883934,-3.270069 -7.343071,-4.382797c-1.460381,-1.112736 -2.021194,-1.680454 -1.504669,-1.952957z" clip-rule="evenodd"/>
    <path id="svg_15" stroke-width="0.036" stroke-miterlimit="10" stroke="#000000" fill-rule="evenodd" d="m81.582893,71.662674c-1.437286,1.74794 -2.762299,2.793167 -3.885193,3.042969c-1.190254,0.226456 -2.515266,-0.249802 -3.009331,-1.521484c-0.583908,-1.339828 -0.988152,-3.611336 0,-6.109306c1.033058,-2.565468 2.964417,-5.472813 6.04113,-8.969971l-0.426697,-3.270081c-4.761055,2.316319 -7.815308,4.927826 -9.522087,8.084351c-1.66188,3.111725 -1.167801,7.925362 -0.426697,10.491463c0.651268,2.475883 2.852142,3.656754 4.536453,4.587181c1.661888,0.931053 4.244522,1.862114 5.412331,0.86293c1.144714,-1.043983 1.48159,-3.47319 1.28009,-7.198051z" clip-rule="evenodd"/>
    <path id="svg_16" stroke-width="0.036" stroke-miterlimit="10" stroke="#000000" fill-rule="evenodd" fill="#408000" d="m80.504921,74.706261c0.224579,1.657768 0.112289,2.906105 -0.426689,3.497169c-0.583916,0.499588 -1.639427,0.658554 -2.807228,0.226448c-1.280098,-0.476868 -2.964424,-1.453362 -4.109772,-2.406494c-1.100433,-0.976479 -1.863983,-1.680443 -2.380516,-3.065697c-0.516541,-1.385223 -0.696198,-3.156517 -0.62883,-5.223007c0.13475,2.361702 0.696198,4.292587 1.931366,5.881577c1.145348,1.521492 3.772911,3.270691 5.187752,3.497154c1.391754,0.203751 2.469727,-0.659195 3.233917,-2.40715z" clip-rule="evenodd"/>
    <path id="svg_17" stroke-width="0.036" stroke-miterlimit="10" stroke="#000000" fill-rule="evenodd" fill="#80FF00" d="m80.504921,73.389168l-0.067375,1.021271c-0.471611,0.90834 -0.965683,1.59024 -1.572037,1.95359c-0.651276,0.385414 -1.122887,0.567085 -2.111031,0.204353c-1.077972,-0.522293 -3.009331,-1.703148 -3.975029,-2.838585c-0.943222,-1.22628 -1.594498,-2.543381 -1.863991,-3.951965c-0.404236,-1.430656 -0.808487,-2.906097 -0.336868,-4.428207c0.381783,-1.635036 1.257637,-3.497154 2.80722,-5.064068c1.549591,-1.589622 3.593254,-3.065693 6.378006,-4.428219l0.404236,2.339001c-1.527122,1.498787 -2.829681,3.088406 -3.907654,4.859066c-1.212715,1.703163 -2.335594,3.724251 -2.672462,5.540947c-0.336876,1.771912 0.269485,4.223831 0.965668,5.336563c0.673744,1.044594 2.043663,1.339821 3.076736,1.248985c1.009972,-0.067497 1.908897,-0.726059 2.87458,-1.792732z" clip-rule="evenodd"/>
    <path id="svg_18" stroke-width="0.036" stroke-miterlimit="10" stroke="#000000" fill-rule="evenodd" d="m45.312988,75.591286c4.289436,2.066498 7.837753,4.178413 11.004288,6.335762c3.144093,2.135254 5.547073,4.315292 7.568275,6.540138l4.087326,-5.24511c-3.391136,-3.883202 -6.737343,-6.721802 -10.128464,-8.515816c-3.436031,-1.839401 -6.73732,-2.634834 -10.17337,-2.384415c-0.786015,1.089401 -1.5714,2.179413 -2.358055,3.26944z" clip-rule="evenodd"/>
    <path id="svg_19" stroke-width="0.036" stroke-miterlimit="10" stroke="#000000" fill-rule="evenodd" fill="#80FF00" d="m46.234375,75.523163c1.863995,0.999184 3.6157,1.884193 5.344955,2.906097c1.68433,0.954407 2.672466,1.317734 4.783504,2.930069c2.021191,1.544197 4.55891,3.678818 7.523335,6.403252l0.628845,-0.86232c-2.313168,-2.407127 -4.648773,-4.405502 -7.09668,-6.176781c-2.515259,-1.794632 -5.771645,-3.383606 -7.590714,-4.337395c-1.81908,-1.021881 -2.919518,-1.544182 -3.3013,-1.566887c-0.089813,0.227707 -0.179649,0.45417 -0.291946,0.703964z" clip-rule="evenodd"/>
    <path id="svg_20" stroke-width="0.036" stroke-miterlimit="10" stroke="#000000" fill-rule="evenodd" fill="#408000" d="m46.930561,74.024376l1.190273,-1.272308c3.211449,0.317909 5.996216,0.954384 8.444111,1.998367c2.425426,1.044601 4.379265,2.702354 6.198345,4.178413c1.774162,1.43129 3.16655,2.816536 4.356812,4.337395l-2.47036,3.270676c-2.066124,-2.497955 -4.289444,-4.519035 -6.66996,-6.313042c-2.515263,-1.839401 -5.83902,-3.293411 -7.725479,-4.269867c-1.863968,-0.976501 -2.941948,-1.453377 -3.323742,-1.430656c0,-0.15834 0,-0.316673 0,-0.498978z" clip-rule="evenodd"/>
    <path id="svg_21" stroke-width="0.036" stroke-miterlimit="10" stroke="#000000" fill-rule="evenodd" d="m108.576508,86.105476c0.74173,0.658546 1.863991,-2.361084 2.066734,-4.404884c0.090462,-2.089859 0.269493,-5.313858 -1.279465,-7.65287c-1.640038,-2.407135 -6.827789,-5.745338 -8.197708,-6.335754c-1.437927,-0.636475 -0.988144,0.999176 -0.112297,2.634216c0.807861,1.612328 3.929482,4.245918 5.210197,6.948906c1.235176,2.588791 1.571419,8.038277 2.312538,8.810387z" clip-rule="evenodd"/>
    <path id="svg_22" stroke-width="0.036" stroke-miterlimit="10" stroke="#000000" fill-rule="evenodd" fill="#80FF00" d="m100.716286,68.347176c1.235176,0.431465 2.426056,1.180855 3.818436,2.157349c1.347481,0.953766 3.143463,2.134621 4.176529,3.724236c0.921387,1.566277 1.437904,3.905281 1.459755,5.790741c0.023064,1.793999 -0.381165,3.497169 -1.212105,5.109482c0.223953,-1.725235 0.314407,-3.382988 0.021828,-5.063423c-0.314392,-1.748573 -0.246399,-3.042992 -1.616951,-5.018654c-1.414215,-1.976295 -3.570786,-4.178413 -6.647491,-6.69973z" clip-rule="evenodd"/>
    <path id="svg_23" stroke-width="0.036" stroke-miterlimit="10" stroke="#000000" fill-rule="evenodd" fill="#408000" d="m108.442375,84.334175c-0.135384,-1.747948 -0.337494,-3.406311 -0.854027,-4.882393c-0.515282,-1.543571 -1.100441,-2.611511 -2.08857,-4.155708c-1.033051,-1.612312 -2.335609,-3.405678 -3.997482,-5.381996c1.437912,1.113365 2.628181,2.271507 3.66124,3.383621c0.943222,1.11274 1.752319,1.680458 2.335602,3.292778c0.538368,1.544197 1.100441,4.655945 1.257637,5.99575c0.157219,1.317116 0.021835,1.838783 -0.3144,1.747948z" clip-rule="evenodd"/>
    <path id="svg_24" stroke-width="0.036" stroke-miterlimit="10" stroke="#000000" fill-rule="evenodd" fill="#CD3204" d="m111.923332,65.145233c0.112289,1.771301 0.718651,4.269257 2.426056,6.358467c1.683708,1.930244 4.222054,4.496353 7.52272,5.336571c3.233917,0.772095 9.611931,0.976471 11.768501,-0.613136c2.088577,-1.771919 2.065506,-6.403885 0.628799,-9.242485c-1.595108,-2.88401 -6.086044,-6.403877 -9.566994,-7.403069c-3.525864,-0.931061 -9.006813,0.885647 -11.162125,1.862122c-2.111664,0.840233 -1.841545,2.043804 -1.616959,3.70153z" clip-rule="evenodd"/>
    <path id="svg_25" stroke-width="0.036" stroke-miterlimit="10" stroke="#000000" fill-rule="evenodd" d="m91.86792,30.537027c0.112297,1.498785 0.651276,3.974043 2.223312,5.768042c1.550217,1.793987 3.817833,4.019463 6.805328,4.836971c3.009338,0.726685 8.645615,0.862934 10.667442,-0.567722c1.819084,-1.544201 1.885834,-5.881569 0.561447,-8.379543c-1.370552,-2.611515 -5.547707,-5.836168 -8.646866,-6.699099c-3.143463,-0.840225 -8.219543,0.7721 -10.127831,1.68045c-1.953819,0.7721 -1.64003,1.862122 -1.482834,3.360901z" clip-rule="evenodd"/>
    <path id="svg_26" stroke-width="0.036" stroke-miterlimit="10" stroke="#000000" fill-rule="evenodd" fill="#CD3204" d="m92.49736,30.55974c0.067375,1.453363 0.673744,3.701532 2.087952,5.427404c1.437927,1.680447 3.571411,3.83778 6.400467,4.541759c2.694923,0.635841 8.26445,0.840225 10.039856,-0.522305c1.751099,-1.453362 1.751099,-5.540947 0.516541,-7.879948c-1.370552,-2.407139 -5.121002,-5.495541 -8.130341,-6.29034c-3.009338,-0.749401 -7.681175,0.681263 -9.522095,1.566906c-1.864616,0.772097 -1.549583,1.680449 -1.39238,3.156523z" clip-rule="evenodd"/>
    <path id="svg_27" stroke-width="0.036" stroke-miterlimit="10" stroke="#000000" fill-rule="evenodd" d="m103.725609,29.424305c-3.840271,1.589611 -7.209564,2.634209 -10.375473,3.474438c-3.188988,0.772095 -5.996216,1.11274 -8.511497,1.11274l0.94323,5.6772c4.37928,-0.022717 8.129715,-0.454182 11.250717,-1.635036c3.12162,-1.158157 5.525238,-2.861313 7.389854,-5.200317c-0.225204,-1.135439 -0.449158,-2.270878 -0.696831,-3.429024z" clip-rule="evenodd"/>
    <path id="svg_28" stroke-width="0.036" stroke-miterlimit="10" stroke="#000000" fill-rule="evenodd" fill="#80FF00" d="m103.232178,30.060148c-1.729874,0.613136 -3.34684,1.294395 -4.94072,1.793995c-1.64003,0.454168 -2.447891,0.976469 -4.604462,1.385229c-2.200859,0.386059 -4.940689,0.84024 -8.3992,1.180862l0.157211,0.908356c2.829674,-0.113548 5.479691,-0.454178 8.039871,-1.021904c2.492813,-0.681255 5.411713,-1.748577 7.119118,-2.407125c1.66188,-0.635851 2.628181,-1.044609 2.897667,-1.226276c-0.090454,-0.204378 -0.18029,-0.408762 -0.269485,-0.613136z" clip-rule="evenodd"/>
    <path id="svg_29" stroke-width="0.036" stroke-miterlimit="10" stroke="#000000" fill-rule="evenodd" fill="#408000" d="m103.770538,31.399958l0.112289,1.498785c-2.088577,1.907539 -4.042397,3.315495 -6.130966,4.314678c-2.133484,0.976475 -4.334343,1.203564 -6.242645,1.566902c-1.931358,0.340633 -3.683067,0.363338 -5.255104,0.317924l-0.651276,-3.474442l0,0c2.739838,0.113537 5.300026,-0.136257 7.860207,-0.658558c2.515274,-0.590427 5.457863,-1.907543 7.186485,-2.543385c1.640053,-0.61314 2.605095,-1.13545 2.80722,-1.317114c0.089836,0.090834 0.202118,0.181664 0.313789,0.295208z" clip-rule="evenodd"/>
    <path id="svg_30" stroke-width="0.036" stroke-miterlimit="10" stroke="#000000" fill-rule="evenodd" d="m81.62719,48.749481c-1.100433,0.61314 -2.066124,0.726688 -3.144081,0.340641c-1.07798,-0.454182 -3.233925,-1.22628 -3.16655,-2.679642c-0.044922,-1.47607 0.920769,-5.35928 3.323753,-6.040535c2.402977,-0.77211 9.050468,0.454174 11.116592,1.839409c1.97628,1.362522 1.729233,5.359268 0.988129,6.381165c-0.763565,0.976482 -2.582642,0.772102 -5.457237,-0.522297c-0.516525,0.681259 -0.606354,1.385231 -0.179657,2.361713c0.38179,0.95377 1.212723,1.930252 2.492813,3.179234c-0.628822,1.112728 -1.459755,1.839413 -2.829681,2.180038c-1.347473,0.317928 -3.031792,0.181686 -5.14283,-0.317917c0.112289,-1.385242 0.336861,-2.58881 0.673744,-3.701538c0.292564,-1.15815 0.76355,-2.134624 1.325005,-3.020271z" clip-rule="evenodd"/>
    <path id="svg_31" stroke-width="0.036" stroke-miterlimit="10" stroke="#000000" fill-rule="evenodd" fill="#948547" d="m87.040131,53.677284c-0.965683,0.567738 -1.863998,0.840244 -3.031792,0.908363c-1.122902,0.022709 -2.402992,-0.158955 -3.750458,-0.635845l-0.224579,1.317112c0.875862,0.226452 1.63942,0.340626 2.47036,0.432091c0.786018,0.022083 1.549583,0.044788 2.29068,-0.114166c0.62883,-0.227081 1.437317,-0.658558 1.819092,-0.953773c0.336861,-0.34063 0.538368,-0.658558 0.426697,-0.953781z" clip-rule="evenodd"/>
    <path id="svg_32" stroke-width="0.036" stroke-miterlimit="10" stroke="#000000" fill-rule="evenodd" fill="#948547" d="m75.855537,45.411285c-0.224564,0.590439 -0.179657,1.090034 -0.112289,1.498791c0.044922,0.363335 0.359337,0.635841 0.696198,0.908348c0.359337,0.249798 0.808472,0.54501 1.437286,0.794815c0.561455,0.204365 1.212723,0.408756 1.953835,0.431465c0.606354,-0.06813 1.257637,-0.295223 1.863991,-0.681271l0.112297,-0.499592c-0.853394,0.272503 -1.661873,0.431458 -2.335617,0.476891c-0.718643,0.045406 -1.302551,-0.15897 -1.84153,-0.36335c-0.561447,-0.317921 -1.033058,-0.726681 -1.414848,-1.317108c-0.112274,-0.408756 -0.223953,-0.817513 -0.359322,-1.248989z" clip-rule="evenodd"/>
    <path id="svg_33" stroke-width="0.036" stroke-miterlimit="10" stroke="#000000" fill-rule="evenodd" fill="#948547" d="m85.422546,47.818424c0.741112,0.340633 1.392395,0.681259 2.043671,0.840233c0.583893,0.13625 1.302536,0.272503 1.819069,0.227077c0.516525,-0.090828 0.853386,-0.363338 1.190254,-0.726677c-1.055519,0.090832 -1.931366,0.068123 -2.717384,-0.068127c-0.83094,-0.136253 -1.39238,-0.522308 -1.931366,-0.908352c-0.13475,0.204376 -0.268867,0.408756 -0.404243,0.635845z" clip-rule="evenodd"/>
    <path id="svg_34" stroke-width="0.036" stroke-miterlimit="10" stroke="#000000" fill-rule="evenodd" fill="#D9BC87" d="m86.837387,53.518337c-0.673729,-0.703976 -1.235176,-1.362526 -1.594505,-2.066494c-0.449142,-0.726696 -0.830933,-1.47607 -0.718651,-2.24818c0.044922,-0.794804 0.561447,-1.589615 1.302559,-2.475262c0.247032,0.386059 0.741096,0.681271 1.572044,0.885647c0.830933,0.204376 1.886452,0.295216 3.346199,0.363335c0.224579,-0.567711 0.359337,-1.067307 0.314415,-1.839413c-0.112282,-0.817516 0.112274,-1.748569 -0.628815,-2.543377c-0.786026,-0.840229 -1.976288,-1.589619 -3.817818,-2.066505c-1.908913,-0.476887 -5.344963,-1.180855 -7.096664,-0.794807c-1.774155,0.340626 -2.53772,1.793991 -3.076706,2.770473c-0.561447,0.885647 -0.247032,1.839417 0,2.588806c0.20211,0.703972 0.651276,1.180851 1.347466,1.521488c0.651276,0.272503 1.661873,0.272503 2.515274,0.272503c0.808464,-0.090832 1.527122,-0.272503 2.245766,-0.635849c-0.134743,0.181675 -0.426697,0.703976 -0.786026,1.83942c-0.359306,1.067307 -0.875847,2.566086 -1.45974,4.587162c1.190254,0.408764 2.335594,0.681278 3.436028,0.635857c1.078606,-0.068119 2.111031,-0.272503 3.099174,-0.794804z" clip-rule="evenodd"/>
    <path id="svg_35" stroke-width="0.036" stroke-miterlimit="10" stroke="#000000" fill-rule="evenodd" d="m90.2285,82.880814c0.112297,1.476067 -0.336861,2.543388 -1.257629,3.542564c-1.033058,0.885025 -2.91951,2.747139 -4.44664,1.998375c-1.572037,-0.84021 -5.0979,-3.70153 -4.603836,-6.654305c0.538994,-2.997566 5.075455,-9.514977 7.635643,-10.968346c2.42543,-1.453362 6.535194,0.862938 7.208939,2.225464c0.65065,1.339813 -0.49469,3.088402 -3.346207,5.585724c0.404243,0.908363 1.190269,1.295036 2.358055,1.407967c1.190895,0.09082 2.672485,-0.340645 4.62693,-1.044617c0.875854,1.15815 1.21209,2.543388 0.83094,4.155701c-0.404243,1.590256 -1.370544,3.338196 -2.987503,5.336571c-1.391129,-0.84021 -2.537109,-1.68045 -3.525246,-2.611496c-1.011223,-0.975227 -1.842163,-1.883568 -2.493446,-2.973602z" clip-rule="evenodd"/>
    <path id="svg_36" stroke-width="0.036" stroke-miterlimit="10" stroke="#000000" fill-rule="evenodd" fill="#948547" d="m98.178551,79.610733c0.113541,1.272339 -0.089211,2.430496 -0.605736,3.724251c-0.561447,1.203568 -1.392372,2.429848 -2.583267,3.678825l1.257645,0.931061c0.673721,-0.794807 1.280716,-1.635017 1.729866,-2.429825c0.402992,-0.931084 0.89769,-1.657753 1.054893,-2.520691c0.157204,-0.885651 0.044907,-1.839401 -0.06675,-2.429832c-0.13475,-0.567719 -0.427322,-0.885651 -0.786652,-0.953789z" clip-rule="evenodd"/>
    <path id="svg_37" stroke-width="0.036" stroke-miterlimit="10" stroke="#000000" fill-rule="evenodd" fill="#948547" d="m83.783134,87.354446c0.516525,0.476891 1.010605,0.772102 1.482208,0.885635c0.426697,0.067505 0.808479,-0.114159 1.325012,-0.295837c0.44915,-0.272499 1.033051,-0.613136 1.572037,-1.11274c0.516533,-0.545021 1.122894,-1.20356 1.459763,-1.884819c0.314407,-0.726059 0.314407,-1.498779 0.247025,-2.316299l-0.471603,-0.408134c-0.134743,1.066696 -0.336868,1.952965 -0.696198,2.747139c-0.359314,0.749382 -0.808472,1.317093 -1.347458,1.793999c-0.583908,0.432098 -1.280098,0.681267 -2.088577,0.840225c-0.494072,-0.067497 -0.988136,-0.15834 -1.482208,-0.249168z" clip-rule="evenodd"/>
    <path id="svg_38" stroke-width="0.036" stroke-miterlimit="10" stroke="#000000" fill-rule="evenodd" fill="#948547" d="m91.21666,78.316338c0.808464,-0.567726 1.369911,-1.180847 1.931358,-1.747955c0.538979,-0.613762 0.898308,-1.248978 1.167809,-1.817329c0.135368,-0.590416 0.090446,-1.135429 -0.134125,-1.63501c-0.449158,1.135437 -0.943237,2.089828 -1.482216,2.861305c-0.606361,0.749374 -1.257637,1.248978 -1.953827,1.590233c0.157204,0.249161 0.313789,0.499596 0.471001,0.748756z" clip-rule="evenodd"/>
    <path id="svg_39" stroke-width="0.036" stroke-miterlimit="10" stroke="#000000" fill-rule="evenodd" fill="#CCB894" d="m97.909065,79.747627c-1.054901,0.408134 -2.088577,0.567085 -3.009338,0.658562c-1.009987,0.022079 -1.908302,0.06749 -2.694313,-0.386047c-0.741104,-0.522308 -1.459755,-1.385254 -1.908913,-2.679649c0.494064,-0.045403 1.100433,-0.45417 1.729256,-1.226273c0.606361,-0.772102 1.302551,-1.906906 2.088562,-3.40567c-0.404236,-0.567726 -0.988136,-0.931717 -1.751701,-1.272339c-0.808479,-0.36335 -1.841537,-1.043976 -3.009338,-0.635849c-1.257637,0.34063 -2.694931,1.317123 -4.132225,3.020271c-1.504669,1.703156 -3.952568,5.1549 -4.491554,7.198677c-0.538994,1.99839 0.606361,3.656136 1.347466,4.723442c0.718643,0.976479 1.796623,1.180222 2.717377,1.317108c0.808495,0.090836 1.594513,-0.091461 2.268242,-0.635841c0.583908,-0.591072 1.257637,-1.680466 1.594498,-2.566101c0.359337,-0.885635 0.49408,-1.793983 0.49408,-2.725067c0.089828,0.204391 0.561447,0.794815 1.504669,1.771927c0.94323,0.931076 2.268234,2.270889 4.064857,3.928635c1.054886,-1.090042 1.863991,-2.180046 2.426064,-3.360909c0.538361,-1.226906 0.762314,-2.385681 0.762314,-3.724876z" clip-rule="evenodd"/>
    <path id="svg_40" stroke-width="0.036" stroke-miterlimit="10" stroke="#000000" fill-rule="evenodd" d="m136.222,72.231018c1.437927,0.431465 2.470978,1.339195 3.009354,2.634216c0.516495,1.317108 1.616943,3.905289 0.269485,5.222404c-1.436661,1.226265 -5.569534,3.678818 -8.331207,2.112541c-2.762314,-1.657745 -7.343071,-8.85643 -7.860229,-11.876709c-0.471603,-3.111107 3.300667,-6.26825 4.917633,-6.403866c1.504669,-0.113556 2.920761,1.612942 4.245148,5.51823c0.988129,-0.113541 1.774155,-0.703972 2.268845,-1.862122c0.516556,-1.225639 0.741119,-2.79319 0.762939,-5.040722c1.527756,-0.477512 2.964417,-0.2271 4.402344,0.749386c1.459747,0.953781 2.716766,2.634232 4.109772,5.041359c-1.347443,1.044601 -2.626923,1.862122 -3.929489,2.543381c-1.326874,0.634583 -2.583862,1.088768 -3.864594,1.3619z" clip-rule="evenodd"/>
    <path id="svg_41" stroke-width="0.036" stroke-miterlimit="10" stroke="#000000" fill-rule="evenodd" fill="#948547" d="m136.042953,62.987904c1.302551,0.317928 2.357468,0.999191 3.412964,2.043789c1.011215,0.976486 1.863983,2.339005 2.650024,3.996758l1.392365,-0.908356c-0.538361,-0.999184 -1.122238,-1.884827 -1.751083,-2.656937c-0.630051,-0.817513 -1.347458,-1.521492 -2.066711,-2.021065c-0.786041,-0.499611 -1.819092,-0.817532 -2.402985,-0.862953c-0.62883,-0.090824 -1.01059,0.045422 -1.234573,0.408764z" clip-rule="evenodd"/>
    <path id="svg_42" stroke-width="0.036" stroke-miterlimit="10" stroke="#000000" fill-rule="evenodd" fill="#948547" d="m138.153381,80.450981c0.630051,-0.363342 1.190247,-0.74939 1.437897,-1.158157c0.223969,-0.45417 0.269501,-0.907722 0.223969,-1.453362c-0.066772,-0.613136 -0.200882,-1.339828 -0.493454,-1.998375c-0.269516,-0.749397 -0.786057,-1.657738 -1.302536,-2.202744c-0.583893,-0.567734 -1.347473,-0.976494 -2.200272,-1.13546l-0.561401,0.34063c0.988129,0.499603 1.795975,1.11274 2.424789,1.747963c0.585175,0.636467 1.033066,1.226273 1.258896,2.02108c0.157196,0.726669 0.246399,1.544189 0.021835,2.453178c-0.270126,0.454178 -0.539597,0.908356 -0.809723,1.385246z" clip-rule="evenodd"/>
    <path id="svg_43" stroke-width="0.036" stroke-miterlimit="10" stroke="#000000" fill-rule="evenodd" fill="#948547" d="m132.112244,69.528664c-0.291336,-0.999184 -0.62883,-1.907524 -1.009995,-2.63485c-0.382416,-0.817505 -0.854019,-1.476074 -1.325638,-1.884186c-0.493439,-0.408768 -1.077347,-0.567734 -1.661865,-0.476891c0.943237,0.840218 1.75235,1.70253 2.247025,2.588806c0.471619,0.840218 0.807861,1.703148 0.830948,2.588791c0.290695,-0.046036 0.605118,-0.114166 0.919525,-0.181671z" clip-rule="evenodd"/>
    <path id="svg_44" stroke-width="0.036" stroke-miterlimit="10" stroke="#000000" fill-rule="evenodd" fill="#EBC275" d="m136.064819,63.328541c-0.044937,1.248341 -0.179047,2.22546 -0.493454,3.270069c-0.359329,0.954391 -0.62883,1.93087 -1.414856,2.566093c-0.809097,0.522293 -1.932602,0.907715 -3.368668,0.907715c0.134109,-0.567101 -0.044922,-1.271683 -0.539612,-2.202118c-0.538345,-0.954407 -1.391129,-2.089844 -2.560181,-3.406326c-0.718643,0.136261 -1.302559,0.590446 -1.931374,1.271698c-0.695564,0.636467 -1.661873,1.385239 -1.774147,2.771103c-0.112305,1.407303 0.269478,3.088394 1.39238,5.313858c1.167168,2.111916 3.502777,5.881577 5.367401,7.266823c1.774139,1.272308 3.840271,0.726677 5.164658,0.454811c1.213364,-0.340645 1.887085,-1.431297 2.358704,-2.225487c0.426682,-0.86293 0.471588,-1.680443 0.223938,-2.543373c-0.314423,-0.90773 -1.212082,-1.884201 -1.909531,-2.56546c-0.718643,-0.726685 -1.616959,-1.180855 -2.514648,-1.544205c0.223938,-0.022713 1.033066,-0.272507 2.335602,-0.840225c1.279465,-0.635841 3.05365,-1.407936 5.412308,-2.588791c-0.628799,-1.520882 -1.414795,-2.724434 -2.358658,-3.700912c-0.963821,-1.024429 -2.06424,-1.728401 -3.389862,-2.205273z" clip-rule="evenodd"/>
   </g>
  </g>
  <text font-style="italic" transform="rotate(-41.8015 35.274 92.9689) matrix(4.5151 0 0 3.96547 -96.9215 -126.149)" xml:space="preserve" text-anchor="middle" font-family="Impact" font-size="24" id="svg_45" y="64.940399" x="29.72921" stroke-width="0" stroke="#0000ff" fill="#000000">P</text>
  <text id="svg_47" font-style="italic" transform="rotate(5.01917 144.745 79.7494) matrix(4.36195 0 0 4.98192 -87.0708 -159.854)" xml:space="preserve" text-anchor="middle" font-family="Impact" font-size="24" y="57.939252" x="53.422404" stroke-width="0" stroke="#000000" fill="#000000">C</text>
 </g>
</svg>